<?xml version="1.0" standalone="no"?>
<!DOCTYPE svg PUBLIC "-//W3C//DTD SVG 20010904//EN"
 "http://www.w3.org/TR/2001/REC-SVG-20010904/DTD/svg10.dtd">
<svg version="1.0" xmlns="http://www.w3.org/2000/svg"
 width="300.000000pt" height="105.000000pt" viewBox="0 0 300.000000 105.000000"
 preserveAspectRatio="xMidYMid meet">
<metadata>
Created by potrace 1.10, written by Peter Selinger 2001-2011
</metadata>
<g transform="translate(0.000000,105.000000) scale(0.100000,-0.100000)"
fill="#000000" stroke="none">
<path d="M536 740 c-35 -42 -65 -146 -73 -251 l-6 -87 -43 -11 c-90 -23 -161
-10 -189 32 -58 89 5 247 98 247 41 0 51 -11 52 -60 0 -26 5 -36 19 -38 48
-10 61 69 20 117 -23 28 -32 31 -80 31 -64 0 -100 -16 -141 -64 -61 -68 -77
-190 -35 -257 41 -66 145 -94 248 -66 44 12 53 11 61 -1 14 -22 52 -6 59 26
12 48 46 112 59 112 11 0 11 -8 4 -32 -13 -45 -11 -92 3 -106 17 -17 59 -15
86 4 20 14 24 14 38 0 21 -22 60 -20 83 3 18 18 19 18 35 0 19 -23 44 -24 74
-3 20 14 24 14 44 0 68 -48 150 13 150 110 0 54 -30 88 -81 92 -56 4 -96 -34
-106 -101 -7 -48 -29 -77 -45 -61 -6 6 -5 35 2 77 6 37 9 69 7 71 -2 2 -24 7
-49 10 -63 9 -102 -16 -125 -81 -24 -68 -30 -78 -50 -82 -16 -3 -17 2 -10 55
13 101 12 109 -13 112 -33 5 -68 -22 -94 -71 -17 -32 -23 -38 -26 -23 -2 10
10 37 28 60 64 85 89 130 96 172 13 86 -48 125 -100 64z m52 -59 c-4 -44 -53
-149 -64 -138 -6 6 13 93 32 145 21 58 38 54 32 -7z m227 -235 c-16 -67 -21
-76 -46 -76 -15 0 -19 7 -19 30 0 35 23 86 42 93 33 13 35 7 23 -47z m226 20
c14 -29 1 -75 -25 -90 -34 -21 -60 48 -36 95 15 27 48 24 61 -5z"/>
<path d="M1736 740 c-34 -40 -64 -141 -72 -240 -7 -76 -8 -81 -42 -106 l-34
-27 7 44 c3 24 8 51 11 60 7 27 -21 40 -78 37 -50 -3 -53 -5 -56 -30 -3 -26
-1 -28 36 -28 37 0 39 -1 34 -27 -6 -36 -18 -43 -69 -43 -87 0 -127 38 -126
120 1 67 19 115 55 145 25 21 39 25 77 23 l46 -3 3 -43 c5 -74 62 -66 62 10 0
28 -7 46 -26 65 -23 23 -31 25 -94 21 -59 -3 -74 -8 -107 -34 -20 -17 -48 -50
-61 -75 -20 -38 -23 -55 -20 -121 3 -74 5 -80 38 -112 45 -45 113 -65 170 -49
22 5 40 8 40 6 0 -3 -22 -25 -49 -49 -80 -72 -101 -147 -50 -175 53 -28 107
29 135 143 15 59 21 69 60 97 51 35 54 36 54 16 0 -8 11 -22 25 -31 29 -19 85
-13 105 11 11 13 16 12 37 -5 31 -24 83 -26 125 -4 28 15 32 15 40 0 12 -21
37 -20 45 2 18 52 57 132 65 132 5 0 8 -33 6 -72 -3 -72 -3 -73 22 -73 23 0
25 4 37 99 6 55 10 103 7 108 -3 4 -18 8 -33 8 -30 0 -59 -26 -86 -78 -23 -47
-28 -35 -10 24 8 27 15 50 15 52 0 1 -11 2 -25 2 -30 0 -42 -21 -51 -89 -6
-44 -11 -54 -36 -67 -31 -16 -94 -16 -91 1 1 5 15 13 32 18 17 4 37 17 46 29
18 27 20 79 3 96 -15 15 -72 16 -99 2 -25 -14 -49 -62 -49 -98 0 -49 -52 -80
-80 -47 -10 12 -7 23 18 62 78 121 111 248 78 298 -23 34 -58 32 -90 -5z m52
-72 c-3 -44 -13 -83 -35 -128 -28 -58 -31 -62 -32 -34 -2 72 39 224 61 224 6
0 9 -24 6 -62z m129 -179 c16 -16 5 -37 -28 -55 -27 -13 -29 -13 -29 4 0 19
27 62 39 62 4 0 12 -5 18 -11z m-339 -131 c-7 -19 -38 -22 -38 -4 0 10 9 16
21 16 12 0 19 -5 17 -12z m-79 -157 c-22 -53 -49 -68 -49 -28 0 25 62 107 68
89 2 -6 -7 -33 -19 -61z"/>
<path d="M480 718 c-11 -18 -20 -42 -19 -53 0 -14 2 -16 6 -5 3 8 14 32 25 53
23 46 15 49 -12 5z"/>
<path d="M1682 723 c-43 -61 -66 -165 -53 -238 l9 -50 1 55 c2 69 25 169 51
220 24 46 20 52 -8 13z"/>
<path d="M2665 720 c-12 -4 -38 -30 -60 -56 -21 -27 -42 -53 -46 -58 -4 -5
-13 10 -19 33 -16 60 -41 81 -94 81 -35 0 -50 -6 -75 -29 -29 -28 -38 -50 -25
-64 3 -3 23 6 44 19 52 34 74 22 96 -52 l16 -55 -87 -95 c-47 -53 -84 -101
-82 -107 2 -7 15 -13 29 -15 22 -3 37 10 92 78 38 47 68 76 70 68 2 -7 9 -33
16 -57 22 -80 75 -110 139 -76 26 13 30 13 41 0 7 -8 20 -15 30 -15 19 0 50
30 50 48 0 7 5 12 11 12 6 0 8 -8 5 -17 -8 -25 8 -46 30 -41 15 3 21 18 31 83
18 124 17 135 -11 135 -19 0 -26 -8 -36 -44 -15 -53 -45 -106 -61 -106 -12 0
-9 39 7 118 6 29 4 32 -19 32 -19 0 -28 -7 -36 -31 -6 -18 -11 -45 -11 -60 0
-38 -33 -71 -68 -67 -23 3 -29 11 -49 77 -18 60 -20 78 -10 90 6 9 38 46 69
82 32 36 58 70 58 76 0 16 -22 22 -45 13z"/>
<path d="M1300 663 c-52 -59 -70 -108 -70 -194 0 -63 4 -82 23 -110 45 -68
150 -110 185 -75 15 15 14 16 -16 16 -74 0 -155 65 -168 136 -16 84 10 179 64
237 14 15 23 27 20 27 -3 0 -20 -17 -38 -37z"/>
<path d="M2307 662 c-43 -47 7 -124 51 -80 9 9 6 14 -11 23 -16 8 -22 20 -22
43 0 18 0 32 -1 32 0 0 -8 -8 -17 -18z"/>
<path d="M131 631 c-31 -44 -43 -80 -46 -151 -4 -76 9 -112 57 -158 46 -44
123 -60 210 -45 36 6 67 7 73 2 15 -14 61 -10 75 6 15 18 -2 19 -147 15 -50
-1 -107 3 -126 9 -41 14 -103 78 -113 116 -12 47 1 149 24 193 25 49 22 54 -7
13z"/>
<path d="M283 630 c-18 -11 -33 -23 -33 -26 0 -4 7 -1 14 6 8 6 25 10 38 8 20
-3 23 -8 20 -36 -4 -41 12 -62 48 -62 39 0 45 12 11 26 -26 11 -30 19 -33 56
-4 51 -18 57 -65 28z"/>
<path d="M1433 635 c-44 -19 -42 -24 6 -18 l40 5 3 -43 c3 -42 5 -44 37 -47
18 -2 38 1 44 7 8 8 4 11 -15 11 -32 0 -45 16 -50 60 -4 40 -18 46 -65 25z"/>
<path d="M2405 625 c-13 -10 -15 -14 -5 -13 10 2 20 -13 31 -45 13 -41 18 -46
28 -33 10 12 10 24 -1 58 -16 48 -26 54 -53 33z"/>
<path d="M428 555 c-13 -21 -21 -135 -9 -135 6 0 14 6 17 14 7 19 0 133 -8
121z"/>
<path d="M2687 522 c-20 -22 -37 -119 -19 -108 7 4 12 17 12 29 1 12 7 39 14
60 16 42 15 44 -7 19z"/>
<path d="M1432 488 c-7 -7 -12 -25 -12 -40 0 -36 33 -54 70 -39 23 9 23 10 4
10 -30 1 -57 35 -49 60 7 24 4 26 -13 9z"/>
<path d="M2497 414 c-22 -23 5 -96 49 -129 21 -16 91 -20 113 -6 7 5 25 4 41
-2 21 -8 36 -8 54 1 16 7 28 8 31 2 10 -15 61 -12 75 5 14 17 10 18 -163 16
-60 0 -118 4 -129 10 -11 6 -30 33 -42 60 -12 28 -25 47 -29 43z"/>
<path d="M2302 360 c-39 -52 -24 -90 35 -90 22 0 42 9 61 28 15 15 21 21 12
15 -9 -7 -33 -13 -54 -13 -43 0 -55 19 -39 61 14 36 12 36 -15 -1z"/>
<path d="M545 332 c-4 -21 -2 -38 5 -47 15 -18 73 -20 102 -4 14 8 23 8 31 0
14 -14 62 -14 89 0 14 8 23 8 31 0 16 -16 60 -14 83 4 18 13 17 14 -18 15 -20
0 -40 5 -43 10 -4 7 -11 8 -18 1 -14 -11 -208 -13 -225 -2 -6 3 -15 18 -20 31
-9 25 -9 25 -17 -8z"/>
<path d="M2082 330 c-28 -45 27 -78 81 -48 21 12 20 13 -18 18 -30 4 -40 10
-45 28 -5 22 -5 22 -18 2z"/>
<path d="M1640 316 c0 -39 95 -61 135 -32 15 11 22 11 44 0 30 -16 89 -18 125
-4 16 6 27 6 31 0 9 -15 51 -12 65 5 11 13 8 15 -16 16 -59 2 -180 7 -199 8
-11 0 -41 -2 -68 -5 -35 -4 -54 -2 -72 10 -30 20 -45 20 -45 2z"/>
<path d="M913 305 c-9 -24 4 -30 63 -30 43 0 58 5 76 24 23 23 23 23 1 12 -27
-14 -100 -14 -108 -1 -9 15 -25 12 -32 -5z"/>
<path d="M1368 197 c-22 -46 -17 -106 12 -129 28 -23 71 -23 100 0 22 18 22
18 -18 14 -31 -3 -45 1 -61 17 -23 23 -28 79 -11 112 6 10 7 19 2 19 -4 0 -15
-15 -24 -33z"/>
</g>
</svg>
